<?xml version="1.0" encoding="UTF-8" standalone="no"?>
<svg
   xmlns:dc="http://purl.org/dc/elements/1.1/"
   xmlns:cc="http://creativecommons.org/ns#"
   xmlns:rdf="http://www.w3.org/1999/02/22-rdf-syntax-ns#"
   xmlns:svg="http://www.w3.org/2000/svg"
   xmlns="http://www.w3.org/2000/svg"
   xmlns:sodipodi="http://sodipodi.sourceforge.net/DTD/sodipodi-0.dtd"
   xmlns:inkscape="http://www.inkscape.org/namespaces/inkscape"
   version="1.1"
   id="Warstwa_1"
   x="0px"
   y="0px"
   viewBox="0 0 193.2 50.8"
   xml:space="preserve"
   sodipodi:docname="selero.svg"
   width="193.2"
   height="50.799999"
   inkscape:version="1.0.1 (0767f8302a, 2020-10-17)"><metadata
   id="metadata25"><rdf:RDF><cc:Work
       rdf:about=""><dc:format>image/svg+xml</dc:format><dc:type
         rdf:resource="http://purl.org/dc/dcmitype/StillImage" /></cc:Work></rdf:RDF></metadata><defs
   id="defs23" /><sodipodi:namedview
   pagecolor="#ffffff"
   bordercolor="#666666"
   borderopacity="1"
   objecttolerance="10"
   gridtolerance="10"
   guidetolerance="10"
   inkscape:pageopacity="0"
   inkscape:pageshadow="2"
   inkscape:window-width="838"
   inkscape:window-height="480"
   id="namedview21"
   showgrid="false"
   inkscape:zoom="2.0450815"
   inkscape:cx="70.162369"
   inkscape:cy="40.453214"
   inkscape:window-x="238"
   inkscape:window-y="55"
   inkscape:window-maximized="0"
   inkscape:current-layer="Warstwa_1" />
<style
   type="text/css"
   id="style2">
	.st0{fill:#98C85A;}
</style>
<circle
   class="st0"
   cx="176.5"
   cy="22.900002"
   r="16.700001"
   id="circle4" />
<g
   id="g18"
   transform="translate(-84,-70)">
	<path
   d="m 101.4,92.4 c -0.2,-1 -0.6,-1.8 -1.2,-2.4 -0.6,-0.6 -1.4,-0.8 -2.4,-0.8 -1,0 -1.9,0.3 -2.5,0.9 -0.6,0.6 -1,1.4 -1,2.3 0,0.9 0.4,1.6 1.2,2.2 0.8,0.5 2.4,1.2 4.6,1.9 3.9,1.2 6.7,2.7 8.4,4.5 1.7,1.8 2.5,4.2 2.5,7.1 0,3.7 -1.2,6.8 -3.7,9.1 -2.5,2.4 -5.6,3.5 -9.5,3.5 -3.9,0 -7.1,-1.2 -9.7,-3.6 -2.5,-2.4 -3.9,-5.5 -4.1,-9.4 h 9.2 c 0.3,1.6 0.8,2.8 1.6,3.6 0.8,0.8 1.9,1.2 3.1,1.2 1.2,0 2.2,-0.3 3,-1 0.8,-0.7 1.2,-1.5 1.2,-2.6 0,-1.2 -0.4,-2 -1.1,-2.7 -0.7,-0.6 -2.1,-1.3 -4.2,-1.9 -4.1,-1.3 -7.1,-2.8 -8.9,-4.6 -1.8,-1.8 -2.6,-4.1 -2.6,-7 0,-3.4 1.2,-6.3 3.5,-8.4 2.3,-2.1 5.4,-3.3 9.1,-3.3 3.2,0 6,1.1 8.3,3.2 2.3,2.2 3.6,4.8 3.8,8 h -8.6 z"
   id="path6" />
	<path
   d="m 132.8,120.8 c -5.4,0 -9.9,-1.9 -13.7,-5.8 -3.8,-3.8 -5.7,-8.5 -5.7,-14 0,-5.5 1.9,-10.2 5.7,-14 3.8,-3.9 8.4,-5.8 13.7,-5.8 5.4,0 10,1.9 13.8,5.8 3.8,3.9 5.7,8.6 5.7,14 0,1.3 -0.1,2.6 -0.3,3.9 h -29 c 0.5,1.6 1.3,3.1 2.5,4.4 2,2.2 4.6,3.3 7.6,3.3 1.9,0 3.6,-0.4 5.2,-1.3 1.6,-0.9 2.7,-2 3.4,-3.5 h 9.4 c -1.2,3.9 -3.5,7.1 -6.8,9.4 -3.4,2.4 -7.2,3.6 -11.5,3.6 z m 10.1,-23 c -0.4,-2 -1.3,-3.7 -2.6,-5.1 -2,-2.2 -4.5,-3.4 -7.5,-3.4 -3,0 -5.5,1.1 -7.5,3.4 -1.3,1.5 -2.2,3.2 -2.7,5.1 z"
   id="path8" />
	<path
   d="m 157,70 h 4.4 4.5 v 49.5 h -4.4 -4.5 z"
   id="path10" />
	<path
   d="m 190.1,120.8 c -5.4,0 -9.9,-1.9 -13.7,-5.8 -3.8,-3.8 -5.7,-8.5 -5.7,-14 0,-5.5 1.9,-10.2 5.7,-14 3.8,-3.9 8.4,-5.8 13.7,-5.8 5.4,0 10,1.9 13.8,5.8 3.8,3.9 5.7,8.6 5.7,14 0,1.3 -0.1,2.6 -0.3,3.9 h -29 c 0.5,1.6 1.3,3.1 2.5,4.4 2,2.2 4.6,3.3 7.6,3.3 1.9,0 3.6,-0.4 5.2,-1.3 1.6,-0.9 2.7,-2 3.4,-3.5 h 9.4 c -1.2,3.9 -3.5,7.1 -6.8,9.4 -3.4,2.4 -7.2,3.6 -11.5,3.6 z m 10.1,-23 c -0.4,-2 -1.3,-3.7 -2.6,-5.1 -2,-2.2 -4.5,-3.4 -7.5,-3.4 -3,0 -5.5,1.1 -7.5,3.4 -1.3,1.5 -2.2,3.2 -2.7,5.1 z"
   id="path12" />
	<path
   d="m 214.5,82.4 h 4.2 4.2 v 2.8 l 0.4,-0.6 c 1.7,-2.3 4.2,-3.5 7.7,-3.5 h 0.6 v 8.5 c -2.5,0.2 -4.4,0.8 -5.8,2 -1.5,1.4 -2.3,3.5 -2.3,6.4 v 21.5 h -4.5 -4.5 z"
   id="path14" />
	<path
   d="m 237.4,115 c -3.8,-3.8 -5.8,-8.5 -5.8,-14 0,-5.5 1.9,-10.2 5.8,-14 3.8,-3.9 8.5,-5.8 14,-5.8 5.5,0 10.2,1.9 14,5.8 3.8,3.9 5.8,8.6 5.8,14 0,5.5 -1.9,10.2 -5.8,14 -3.8,3.8 -8.5,5.8 -14,5.8 -5.5,0 -10.1,-2 -14,-5.8 z m 21.7,-5.7 c 2.1,-2.2 3.1,-5 3.1,-8.3 0,-3.3 -1,-6.1 -3.1,-8.3 -2.1,-2.2 -4.6,-3.4 -7.7,-3.4 -3.1,0 -5.6,1.1 -7.7,3.4 -2.1,2.2 -3.1,5 -3.1,8.3 0,3.3 1,6.1 3.1,8.3 2.1,2.2 4.6,3.3 7.7,3.3 3.1,0 5.7,-1.1 7.7,-3.3 z"
   id="path16" />
</g>
</svg>
